<svg width="20" height="21" viewBox="0 0 20 21" fill="none" xmlns="http://www.w3.org/2000/svg">
<path d="M9.44967 2.19313C9.66629 1.72351 10.3337 1.72351 10.5504 2.19313L12.6793 6.80867C12.7676 7.00007 12.949 7.13185 13.1583 7.15667L18.2058 7.75513C18.7194 7.81602 18.9256 8.45081 18.5459 8.80194L14.8142 12.253C14.6594 12.3961 14.5901 12.6093 14.6312 12.816L15.6218 17.8014C15.7226 18.3087 15.1826 18.701 14.7313 18.4484L10.296 15.9657C10.1121 15.8628 9.88791 15.8628 9.70399 15.9657L5.26869 18.4484C4.81741 18.701 4.27743 18.3087 4.37822 17.8014L5.36882 12.816C5.4099 12.6093 5.34061 12.3961 5.18587 12.253L1.45411 8.80194C1.07441 8.45081 1.28066 7.81603 1.79423 7.75513L6.84175 7.15667C7.05106 7.13185 7.23245 7.00007 7.32073 6.80867L9.44967 2.19313Z" fill="black" stroke="black" stroke-opacity="0.6" stroke-width="1.72519"/>
</svg>
