<svg width="182" height="55" viewBox="0 0 182 55" fill="none" xmlns="http://www.w3.org/2000/svg">
<path fill-rule="evenodd" clip-rule="evenodd" d="M161.581 47.9383C172.858 47.9383 182 38.7967 182 27.5199C182 16.2432 172.858 7.10156 161.581 7.10156C153.456 7.10156 146.438 11.8483 143.151 18.7203H168.014C168.403 18.7203 168.718 19.0356 168.718 19.4244C168.718 19.8133 168.403 20.1285 168.014 20.1285H142.542C142.105 21.2531 141.765 22.426 141.532 23.637H165.801C166.19 23.637 166.505 23.9523 166.505 24.3411C166.505 24.73 166.19 25.0452 165.801 25.0452H141.312C141.214 25.8564 141.163 26.6823 141.163 27.5199C141.163 27.8668 141.172 28.2116 141.189 28.5542H162.36C162.748 28.5542 163.064 28.8694 163.064 29.2583C163.064 29.6472 162.748 29.9624 162.36 29.9624H141.308C141.451 31.1672 141.7 32.3398 142.044 33.4708H158.672C159.06 33.4708 159.376 33.786 159.376 34.1749C159.376 34.5638 159.06 34.879 158.672 34.879H142.529C143.006 36.1109 143.598 37.285 144.293 38.388H152.771C153.16 38.388 153.475 38.7032 153.475 39.0921C153.475 39.4809 153.16 39.7962 152.771 39.7962H145.264C148.991 44.7412 154.913 47.9383 161.581 47.9383ZM171.911 20.8515C171.533 20.7572 171.151 20.9866 171.057 21.3638C170.962 21.7411 171.192 22.1233 171.569 22.2176C172.102 22.3508 172.925 22.7877 173.515 23.5393C174.081 24.2609 174.443 25.2847 174.094 26.6815C173.806 27.8333 173.036 28.4723 172.054 28.8391C171.044 29.2165 169.86 29.2806 168.907 29.2649C168.223 29.2536 167.593 29.628 167.273 30.2286C166.49 31.6985 165.15 33.7428 163.349 35.3336C163.057 35.591 163.03 36.0359 163.287 36.3274C163.544 36.6189 163.989 36.6465 164.281 36.3891C166.252 34.6481 167.686 32.4471 168.516 30.8909C168.589 30.7536 168.731 30.6703 168.883 30.6728C169.886 30.6894 171.284 30.6299 172.547 30.1583C173.838 29.6761 175.031 28.7406 175.46 27.023C175.921 25.1793 175.44 23.713 174.623 22.6703C173.828 21.6576 172.728 21.0559 171.911 20.8515ZM162.25 37.9745C162.232 38.3997 161.873 38.7295 161.447 38.7112C161.022 38.693 160.692 38.3335 160.711 37.9084C160.729 37.4832 161.088 37.1534 161.514 37.1717C161.939 37.1899 162.269 37.5494 162.25 37.9745Z" fill="#4E321D"/>
<path d="M52.299 23.5596C52.4078 23.75 52.4758 23.9812 52.503 24.2531C52.5302 24.5251 52.5166 24.7971 52.4622 25.069C52.435 25.3138 52.3806 25.5586 52.299 25.8034C52.2446 26.0209 52.1767 26.1841 52.0951 26.2929H25.2928C24.9936 26.2929 24.6129 26.3337 24.1505 26.4153C23.7154 26.4697 23.2802 26.5513 22.8451 26.66C22.4099 26.7416 22.0156 26.8232 21.662 26.9048C21.3357 26.9592 21.1181 26.9864 21.0093 26.9864C20.7917 26.9864 20.479 26.932 20.071 26.8232C19.6631 26.6872 19.1871 26.5241 18.6432 26.3337C18.1265 26.1161 17.5825 25.8713 17.0114 25.5994C16.4403 25.3002 15.8963 25.0011 15.3796 24.7019C15.3796 24.5931 15.3932 24.4435 15.4204 24.2531C15.4748 24.0628 15.5292 23.8724 15.5836 23.682C15.6652 23.4916 15.7467 23.3285 15.8283 23.1925C15.9099 23.0565 16.0051 22.9885 16.1139 22.9885C16.3043 22.9885 16.753 23.0157 17.4601 23.0701C18.1944 23.0973 19.0103 23.1381 19.9078 23.1925C20.8325 23.2469 21.7844 23.3013 22.7635 23.3557C23.7426 23.3829 24.5857 23.3965 25.2928 23.3965H40.4685C40.5773 22.6893 40.6861 21.9414 40.7949 21.1527C40.9308 20.3368 41.0532 19.5209 41.162 18.705C41.2708 17.8891 41.3524 17.0732 41.4068 16.2573C41.4884 15.4414 41.5292 14.6799 41.5292 13.9728H29.9026C29.0051 13.9728 28.2164 14.0816 27.5365 14.2992C26.8838 14.5167 26.3398 14.6255 25.9047 14.6255C25.6327 14.6255 25.2112 14.5303 24.6401 14.34C24.0961 14.1224 23.5386 13.8912 22.9675 13.6465C22.3963 13.4017 21.8796 13.1705 21.4172 12.9529C20.9821 12.7354 20.7237 12.5994 20.6421 12.545C20.6421 12.4634 20.6557 12.3138 20.6829 12.0962C20.7101 11.8787 20.7509 11.6611 20.8053 11.4435C20.8597 11.226 20.9277 11.0356 21.0093 10.8724C21.0909 10.7092 21.1861 10.6276 21.2949 10.6276C21.4308 10.6276 21.8252 10.6548 22.4779 10.7092C23.1306 10.7364 23.8785 10.7772 24.7216 10.8316C25.5919 10.8588 26.4894 10.886 27.4141 10.9132C28.3388 10.9404 29.1683 10.954 29.9026 10.954H39.775C40.0741 10.954 40.4005 10.9268 40.7541 10.8724C41.1076 10.818 41.4476 10.7636 41.7739 10.7092C42.1003 10.6548 42.3859 10.6004 42.6306 10.546C42.9026 10.4916 43.093 10.4644 43.2018 10.4644C43.4193 10.4644 43.6505 10.478 43.8953 10.5052C44.1672 10.5324 44.4256 10.5732 44.6704 10.6276C44.9423 10.6548 45.1871 10.6956 45.4047 10.75C45.6223 10.8044 45.7854 10.8452 45.8942 10.8724C46.275 10.9812 46.5198 11.1308 46.6285 11.3211C46.7645 11.4843 46.8325 11.6339 46.8325 11.7699C46.8325 12.4226 46.7509 13.2385 46.5877 14.2176C46.4518 15.1967 46.2478 16.2301 45.9758 17.318C45.731 18.3787 45.4319 19.4393 45.0783 20.5C44.7248 21.5607 44.3576 22.5126 43.9769 23.3557C44.7656 23.2741 45.4047 23.1109 45.8942 22.8661C46.411 22.6213 46.8597 22.499 47.2405 22.499C47.5396 22.499 47.9612 22.5398 48.5051 22.6213C49.049 22.6757 49.593 22.7573 50.1369 22.8661C50.6808 22.9749 51.1568 23.0973 51.5647 23.2333C51.9999 23.3421 52.2446 23.4508 52.299 23.5596ZM47.2813 44.2427C47.39 44.3515 47.4716 44.5418 47.526 44.8138C47.5804 45.113 47.594 45.4257 47.5668 45.7521C47.5396 46.0784 47.458 46.3912 47.322 46.6904C47.2133 47.0167 47.0365 47.2343 46.7917 47.3431H26.8838C25.5783 47.3431 24.5857 47.0031 23.9057 46.3232C23.253 45.6433 22.9267 44.773 22.9267 43.7123V40.0816C22.9267 39.9456 22.8995 39.8368 22.8451 39.7552C22.8179 39.6464 22.7363 39.5241 22.6003 39.3881L21.3357 38.3274C21.3357 38.1642 21.4037 37.9331 21.5396 37.6339C21.7028 37.3075 21.8524 37.1444 21.9884 37.1444C22.1516 37.1444 22.4235 37.158 22.8043 37.1851C23.2122 37.2123 23.6338 37.2395 24.0689 37.2667C24.5041 37.2667 24.912 37.2803 25.2928 37.3075C25.7007 37.3347 25.9999 37.3483 26.1903 37.3483H40.4277C40.4549 37.158 40.4685 36.8996 40.4685 36.5732C40.4957 36.2197 40.5093 35.8661 40.5093 35.5126C40.5365 35.1318 40.5501 34.7646 40.5501 34.4111C40.5501 34.0575 40.5501 33.7584 40.5501 33.5136H28.3116C27.6861 33.5136 27.0877 33.5816 26.5166 33.7176C25.9727 33.8536 25.5919 33.9216 25.3744 33.9216C25.1296 33.9216 24.776 33.84 24.3137 33.6768C23.8513 33.5136 23.389 33.3232 22.9267 33.1057C22.4643 32.8881 22.0428 32.6841 21.662 32.4937C21.3085 32.2762 21.0909 32.1402 21.0093 32.0858C21.0093 32.0042 21.0229 31.8682 21.0501 31.6778C21.1045 31.4875 21.1589 31.2971 21.2133 31.1067C21.2677 30.9163 21.3357 30.7531 21.4172 30.6172C21.526 30.454 21.6212 30.3724 21.7028 30.3724C21.8116 30.3724 22.138 30.386 22.6819 30.4132C23.2258 30.4404 23.8378 30.4676 24.5177 30.4948C25.2248 30.4948 25.9183 30.5084 26.5982 30.5356C27.3053 30.5628 27.8765 30.5764 28.3116 30.5764H38.9591C39.1223 30.5764 39.3398 30.5492 39.6118 30.4948C39.911 30.4404 40.2101 30.386 40.5093 30.3316C40.8085 30.2772 41.0804 30.2228 41.3252 30.1684C41.5972 30.114 41.7875 30.0868 41.8963 30.0868C42.0051 30.0868 42.1683 30.1004 42.3859 30.1276C42.6306 30.1548 42.8754 30.1956 43.1202 30.25C43.3649 30.2772 43.6097 30.318 43.8545 30.3724C44.0992 30.3996 44.2896 30.4268 44.4256 30.454C44.7792 30.5356 45.0647 30.6716 45.2823 30.8619C45.4999 31.0251 45.6087 31.2835 45.6087 31.637C45.6087 31.773 45.5815 32.0314 45.5271 32.4121C45.4999 32.7929 45.4591 33.2144 45.4047 33.6768C45.3503 34.1391 45.2823 34.6287 45.2007 35.1454C45.1191 35.6349 45.0375 36.0701 44.9559 36.4508C44.8744 36.6412 44.7928 36.818 44.7112 36.9812C44.6568 37.1444 44.5752 37.3347 44.4664 37.5523C44.7656 37.6067 45.0511 37.7563 45.3231 38.001C45.5951 38.2458 45.731 38.5586 45.731 38.9393C45.731 39.1841 45.6087 39.4561 45.3639 39.7552C45.1463 40.0544 44.7928 40.204 44.3032 40.204H27.6997V43.2636C27.6997 43.6987 27.8221 43.9843 28.0668 44.1203C28.3388 44.2563 28.6108 44.3243 28.8827 44.3243H39.7342C39.9246 44.3243 40.2101 44.2835 40.5909 44.2019C40.9988 44.1203 41.4068 44.0251 41.8147 43.9163C42.2227 43.8075 42.5898 43.7123 42.9162 43.6308C43.2698 43.5492 43.5009 43.5084 43.6097 43.5084C43.8001 43.5084 44.0721 43.522 44.4256 43.5492C44.8064 43.6036 45.1871 43.6579 45.5679 43.7123C45.9486 43.7939 46.3022 43.8755 46.6285 43.9571C46.9549 44.0387 47.1725 44.1339 47.2813 44.2427ZM92.1446 21.8462C92.2533 21.9006 92.3349 22.0638 92.3893 22.3358C92.4437 22.6077 92.4709 22.9205 92.4709 23.2741C92.4709 23.6276 92.4301 23.9948 92.3485 24.3755C92.2941 24.7291 92.2125 25.0147 92.1038 25.2322H85.3726L85.3318 30.2092C85.3318 31.0795 85.2638 31.9362 85.1278 32.7793C84.9918 33.5952 84.8287 34.3567 84.6383 35.0638C84.4751 35.7437 84.2847 36.3421 84.0672 36.8588C83.8768 37.3483 83.7 37.7019 83.5368 37.9195H81.701C81.5923 37.7291 81.4835 37.4299 81.3747 37.022C81.2659 36.5868 81.1571 36.0837 81.0483 35.5126C80.9667 34.9414 80.8851 34.3159 80.8036 33.636C80.7492 32.9289 80.722 32.2218 80.722 31.5146V12.545C80.722 12.273 80.654 12.0555 80.518 11.8923C80.382 11.7019 80.246 11.5387 80.11 11.4027L77.7847 9.36298C77.9207 9.03662 78.0567 8.69667 78.1927 8.34311C78.3559 7.96236 78.5326 7.77198 78.723 7.77198C79.0494 7.77198 79.4845 7.81278 80.0285 7.89436C80.5724 7.97595 81.1435 8.08474 81.7418 8.22072C82.3674 8.35671 82.9657 8.50629 83.5368 8.66947C84.1079 8.83265 84.5839 8.99583 84.9646 9.15901C85.2094 9.2678 85.359 9.39018 85.4134 9.52616C85.495 9.63495 85.5358 9.79813 85.5358 10.0157C85.5358 10.2333 85.5086 10.5868 85.4542 11.0764C85.427 11.5659 85.4134 12.0283 85.4134 12.4634L85.3726 22.3766C86.0797 22.295 86.7324 22.091 87.3308 21.7647C87.9563 21.4383 88.4594 21.2751 88.8402 21.2751C89.0305 21.2751 89.2889 21.3023 89.6153 21.3567C89.9416 21.3839 90.268 21.4247 90.5943 21.4791C90.9479 21.5335 91.2607 21.6015 91.5326 21.6831C91.8046 21.7375 92.0086 21.7918 92.1446 21.8462ZM71.9103 13.4017C71.4479 13.4561 70.8768 13.5105 70.1969 13.5649C69.5441 13.5921 68.8506 13.6329 68.1163 13.6872C67.4092 13.7144 66.7157 13.7416 66.0358 13.7688C65.3831 13.796 64.8391 13.8096 64.404 13.8096C64.0232 13.8096 63.4249 13.5649 62.609 13.0753C61.7931 12.5858 60.9772 11.9875 60.1613 11.2803C60.1613 11.1716 60.1749 11.0356 60.2021 10.8724C60.2565 10.682 60.3109 10.5052 60.3653 10.3421C60.4197 10.1789 60.4741 10.0429 60.5285 9.93411C60.6101 9.79813 60.678 9.73014 60.7324 9.73014C60.7868 9.73014 61.0316 9.75733 61.4667 9.81173C61.9019 9.86612 62.3778 9.93411 62.8946 10.0157C63.4385 10.0973 63.9688 10.1789 64.4856 10.2605C65.0023 10.3149 65.3831 10.3421 65.6278 10.3421L71.9103 10.6684C72.0734 10.6684 72.1958 10.8044 72.2774 11.0764C72.359 11.3211 72.3998 11.6067 72.3998 11.9331C72.3998 12.2322 72.359 12.5314 72.2774 12.8306C72.1958 13.1025 72.0734 13.2929 71.9103 13.4017ZM61.7523 18.7458C61.3172 18.7458 60.7868 18.841 60.1613 19.0314C59.5358 19.1946 59.0462 19.2762 58.6927 19.2762C58.5023 19.2762 58.2167 19.1946 57.836 19.0314C57.4824 18.8682 57.1017 18.6914 56.6937 18.5011C56.313 18.2835 55.9458 18.0659 55.5923 17.8483C55.2387 17.6308 54.9939 17.4812 54.858 17.3996C54.858 17.318 54.8716 17.182 54.8988 16.9916C54.9531 16.7741 54.9939 16.5701 55.0211 16.3797C55.0755 16.1621 55.1299 15.9718 55.1843 15.8086C55.2387 15.6454 55.2931 15.5638 55.3475 15.5638C55.5107 15.5638 55.8234 15.5774 56.2858 15.6046C56.7753 15.6318 57.3193 15.6726 57.9176 15.727C58.5431 15.7542 59.1958 15.7814 59.8757 15.8086C60.5557 15.8358 61.1812 15.8494 61.7523 15.8494H70.9312C71.5295 15.8494 72.155 15.7678 72.8077 15.6046C73.4877 15.4142 74.018 15.319 74.3987 15.319C74.7251 15.319 75.0651 15.3326 75.4186 15.3598C75.7722 15.387 76.1121 15.4278 76.4385 15.4822C76.7649 15.5094 77.0368 15.5502 77.2544 15.6046C77.4992 15.659 77.6623 15.6998 77.7439 15.727C77.8527 15.7814 77.9479 15.9446 78.0295 16.2165C78.1111 16.4885 78.1519 16.8013 78.1519 17.1548C78.1519 17.4812 78.1111 17.8075 78.0295 18.1339C77.9751 18.4331 77.8799 18.637 77.7439 18.7458H61.7523ZM75.6226 26.8232C75.6226 27.7207 75.4186 28.5774 75.0107 29.3933C74.6027 30.2092 74.018 30.9299 73.2565 31.5554C72.5222 32.1538 71.6247 32.6297 70.564 32.9833C69.5034 33.3368 68.3339 33.5136 67.0557 33.5136C65.7774 33.5136 64.608 33.3368 63.5473 32.9833C62.5138 32.6297 61.6163 32.1538 60.8548 31.5554C60.1205 30.9299 59.5494 30.2092 59.1414 29.3933C58.7335 28.5774 58.5295 27.7207 58.5295 26.8232C58.5295 25.9257 58.7335 25.069 59.1414 24.2531C59.5494 23.4372 60.1205 22.7301 60.8548 22.1318C61.6163 21.5063 62.5138 21.0167 63.5473 20.6632C64.608 20.2824 65.7774 20.0921 67.0557 20.0921C68.3339 20.0921 69.5034 20.2824 70.564 20.6632C71.6247 21.0167 72.5222 21.5063 73.2565 22.1318C74.018 22.7301 74.6027 23.4372 75.0107 24.2531C75.4186 25.069 75.6226 25.9257 75.6226 26.8232ZM62.813 26.8232C62.813 27.8295 63.1665 28.6862 63.8736 29.3933C64.608 30.1004 65.6686 30.454 67.0557 30.454C68.4427 30.454 69.5034 30.1004 70.2377 29.3933C70.972 28.6862 71.3391 27.8295 71.3391 26.8232C71.3391 25.817 70.972 24.9603 70.2377 24.2531C69.5034 23.5188 68.4427 23.1517 67.0557 23.1517C65.6686 23.1517 64.608 23.5188 63.8736 24.2531C63.1665 24.9603 62.813 25.817 62.813 26.8232ZM83.1289 42.5701C83.428 42.5701 83.7952 42.5973 84.2303 42.6517C84.6927 42.7061 85.1414 42.7741 85.5766 42.8556C86.0117 42.9372 86.4061 43.0188 86.7596 43.1004C87.1132 43.2092 87.3307 43.318 87.4123 43.4268C87.4939 43.5356 87.5619 43.7259 87.6163 43.9979C87.6707 44.2971 87.6843 44.6098 87.6571 44.9362C87.6571 45.2625 87.6163 45.5753 87.5347 45.8745C87.4803 46.1736 87.3851 46.3912 87.2492 46.5272H69.5034C68.0619 46.5272 66.9061 46.2008 66.0358 45.5481C65.1927 44.8954 64.7711 43.9979 64.7711 42.8556V39.0617C64.7711 38.8441 64.7439 38.7082 64.6895 38.6538C64.6624 38.5722 64.5944 38.4906 64.4856 38.409L62.9762 37.2259C62.9762 37.1715 63.0034 37.0628 63.0577 36.8996C63.1121 36.7364 63.1801 36.5732 63.2617 36.41C63.3433 36.2469 63.4249 36.1109 63.5065 36.0021C63.6153 35.8661 63.7105 35.7981 63.7921 35.7981C64.1184 35.7981 64.4992 35.8117 64.9343 35.8389C65.3967 35.8661 65.8454 35.9069 66.2806 35.9613C66.7429 35.9885 67.1644 36.0293 67.5452 36.0837C67.9259 36.1109 68.2251 36.1381 68.4427 36.1653C68.769 36.2197 69.0546 36.3149 69.2994 36.4508C69.5713 36.5868 69.7073 36.8724 69.7073 37.3075L69.6665 38.4906V42.2845C69.6665 42.7197 69.7889 43.0324 70.0337 43.2228C70.2785 43.4404 70.7136 43.5492 71.3391 43.5492H78.8454C79.2533 43.5492 79.6613 43.4948 80.0692 43.386C80.5044 43.3044 80.9123 43.1956 81.2931 43.0596C81.6739 42.9508 82.0138 42.842 82.313 42.7333C82.6393 42.6245 82.9113 42.5701 83.1289 42.5701ZM127.176 9.15901C127.394 9.2678 127.543 9.39018 127.625 9.52616C127.707 9.63495 127.747 9.79813 127.747 10.0157C127.747 10.2333 127.72 10.5868 127.666 11.0764C127.639 11.5659 127.625 12.0283 127.625 12.4634L127.543 22.5398C127.543 23.41 127.475 24.2395 127.339 25.0282C127.203 25.817 127.04 26.5377 126.85 27.1904C126.66 27.8431 126.469 28.4142 126.279 28.9038C126.088 29.3661 125.912 29.7061 125.748 29.9236H123.913C123.695 29.5429 123.478 28.795 123.26 27.6799C123.042 26.5649 122.934 25.2866 122.934 23.8452V22.1726L118.976 22.295C118.895 22.295 118.718 22.3222 118.446 22.3766C118.174 22.4038 117.875 22.4582 117.549 22.5398C117.222 22.5941 116.91 22.6485 116.61 22.7029C116.338 22.7301 116.134 22.7437 115.998 22.7437C115.835 22.7437 115.482 22.5941 114.938 22.295C114.421 21.9958 113.877 21.6695 113.306 21.3159C112.436 22.7029 111.429 24.0356 110.287 25.3138C109.145 26.5921 107.907 27.7751 106.575 28.863C105.269 29.9236 103.869 30.8619 102.373 31.6778C100.904 32.4665 99.3813 33.0921 97.8039 33.5544C97.6135 33.5544 97.3688 33.4864 97.0696 33.3504C96.7976 33.2144 96.5529 33.0649 96.3353 32.9017C96.1177 32.7113 95.9681 32.5209 95.8865 32.3305C95.8321 32.1402 95.9137 31.9906 96.1313 31.8818C98.6062 30.7667 100.796 29.3933 102.699 27.7615C104.603 26.1297 106.208 24.3619 107.513 22.4582L101.679 22.9477C101.462 22.9749 101.176 23.0293 100.823 23.1109C100.469 23.1925 100.184 23.2333 99.966 23.2333C99.7757 23.2333 99.5173 23.1653 99.1909 23.0293C98.8646 22.8933 98.5382 22.7301 98.2118 22.5398C97.8855 22.3494 97.5727 22.1726 97.2736 22.0094C97.0016 21.819 96.8112 21.6831 96.7024 21.6015C96.7024 21.5471 96.7024 21.4519 96.7024 21.3159C96.7296 21.1527 96.7568 20.9895 96.784 20.8264C96.8384 20.6632 96.8792 20.5272 96.9064 20.4184C96.9608 20.2824 97.0288 20.2144 97.1104 20.2144C97.2192 20.2144 97.4231 20.228 97.7223 20.2552C98.0487 20.2552 98.4022 20.2688 98.783 20.296C99.1637 20.296 99.5445 20.296 99.9252 20.296C100.333 20.296 100.66 20.2824 100.904 20.2552L109.226 19.6025C109.58 18.9498 109.879 18.2971 110.124 17.6444C110.396 16.9644 110.641 16.2981 110.858 15.6454H105.514C105.351 15.6454 105.106 15.6726 104.78 15.727C104.453 15.7542 104.114 15.795 103.76 15.8494C103.434 15.8766 103.134 15.9174 102.862 15.9718C102.618 15.999 102.468 16.0126 102.414 16.0126C102.142 16.0126 101.802 15.9446 101.394 15.8086C100.986 15.6454 100.564 15.4686 100.129 15.2783C99.7213 15.0879 99.3405 14.8975 98.987 14.7071C98.6606 14.5167 98.4158 14.3808 98.2526 14.2992C98.2526 13.9456 98.3206 13.5649 98.4566 13.1569C98.5926 12.7218 98.7286 12.5042 98.8646 12.5042C98.919 12.5042 99.2045 12.5178 99.7213 12.545C100.238 12.5722 100.809 12.5994 101.435 12.6266C102.087 12.6266 102.713 12.6402 103.311 12.6674C103.937 12.6946 104.385 12.7082 104.657 12.7082H110.491C110.709 12.7082 110.953 12.6946 111.225 12.6674C111.497 12.613 111.756 12.5586 112.001 12.5042C112.245 12.4226 112.463 12.3682 112.653 12.341C112.871 12.2866 113.034 12.2594 113.143 12.2594C113.252 12.2594 113.401 12.273 113.592 12.3002C113.809 12.3274 114.027 12.3682 114.244 12.4226C114.489 12.4498 114.707 12.477 114.897 12.5042C115.115 12.5314 115.264 12.5586 115.346 12.5858C115.699 12.6674 115.985 12.7898 116.202 12.9529C116.447 13.1161 116.57 13.3337 116.57 13.6057C116.57 13.7416 116.529 13.932 116.447 14.1768C116.393 14.3944 116.325 14.6391 116.243 14.9111C116.026 15.6182 115.767 16.3389 115.468 17.0732C115.196 17.7803 114.883 18.4875 114.53 19.1946C115.101 19.249 115.781 19.3034 116.57 19.3577C117.385 19.3849 118.188 19.3849 118.976 19.3577L122.934 19.2354V12.545C122.934 12.273 122.866 12.0555 122.73 11.8923C122.594 11.7019 122.458 11.5387 122.322 11.4027L119.996 9.36298C120.105 9.06382 120.241 8.72386 120.404 8.34311C120.567 7.96236 120.744 7.77198 120.935 7.77198C121.261 7.77198 121.696 7.81278 122.24 7.89436C122.784 7.97595 123.355 8.08474 123.953 8.22072C124.579 8.35671 125.177 8.50629 125.748 8.66947C126.32 8.83265 126.796 8.99583 127.176 9.15901ZM126.279 31.7186C126.551 31.8274 126.755 31.9226 126.891 32.0042C127.027 32.0858 127.095 32.2218 127.095 32.4121C127.095 32.5481 127.081 32.7793 127.054 33.1057C127.027 33.432 127.013 33.704 127.013 33.9216L126.891 42.8964C126.891 43.3588 126.836 43.8347 126.728 44.3243C126.619 44.841 126.483 45.3169 126.32 45.7521C126.156 46.2144 125.966 46.6224 125.748 46.9759C125.558 47.3567 125.34 47.6423 125.096 47.8326H123.178C123.042 47.6966 122.92 47.5063 122.811 47.2615C122.702 47.0439 122.607 46.84 122.526 46.6496H111.348C111.266 46.8672 111.103 47.0847 110.858 47.3023C110.641 47.5471 110.437 47.7238 110.246 47.8326H108.574C108.139 47.2887 107.812 46.636 107.595 45.8745C107.377 45.113 107.241 44.2971 107.187 43.4268L106.779 35.227C106.779 35.0638 106.738 34.9414 106.656 34.8598C106.602 34.751 106.52 34.6423 106.412 34.5335C106.276 34.3975 106.085 34.2479 105.841 34.0847C105.623 33.9216 105.419 33.772 105.229 33.636C105.31 33.4184 105.419 33.16 105.555 32.8609C105.718 32.5617 105.868 32.4121 106.004 32.4121C106.248 32.4121 106.575 32.4257 106.983 32.4529C107.391 32.4529 107.826 32.4665 108.288 32.4937C108.778 32.5209 109.24 32.5753 109.675 32.6569C110.11 32.7113 110.478 32.7793 110.777 32.8609C111.076 32.9697 111.28 33.0649 111.389 33.1464C111.525 33.228 111.593 33.364 111.593 33.5544L111.552 35.0638V36.41H122.24V34.1255C122.24 33.9623 122.226 33.84 122.199 33.7584C122.172 33.6768 122.09 33.568 121.955 33.432C121.819 33.296 121.615 33.1192 121.343 32.9017C121.098 32.6569 120.907 32.4665 120.771 32.3305C120.799 32.2218 120.853 32.0994 120.935 31.9634C121.016 31.8002 121.098 31.6506 121.179 31.5146C121.261 31.3515 121.343 31.2291 121.424 31.1475C121.533 31.0387 121.615 30.9843 121.669 30.9843C122.349 30.9843 123.138 31.0523 124.035 31.1883C124.933 31.3243 125.68 31.501 126.279 31.7186ZM122.24 39.3881H111.552V43.6715H122.24V39.3881Z" fill="#4E321D"/>
</svg>
