<svg width="30" height="30" viewBox="0 0 30 30" fill="none" xmlns="http://www.w3.org/2000/svg">
<path d="M13.75 5.00028H8.5C6.3998 5.00028 5.3497 5.00028 4.54754 5.40901C3.84193 5.76854 3.26825 6.34221 2.90873 7.04782C2.5 7.84999 2.5 8.90009 2.5 11.0003V21.5003C2.5 23.6005 2.5 24.6506 2.90873 25.4527C3.26825 26.1584 3.84193 26.732 4.54754 27.0916C5.3497 27.5003 6.3998 27.5003 8.5 27.5003H19C21.1002 27.5003 22.1503 27.5003 22.9525 27.0916C23.6581 26.732 24.2317 26.1584 24.5913 25.4527C25 24.6506 25 23.6005 25 21.5003V16.2503M9.99997 20.0003H12.0931C12.7046 20.0003 13.0104 20.0003 13.2981 19.9312C13.5532 19.87 13.797 19.769 14.0207 19.6319C14.273 19.4773 14.4892 19.2611 14.9216 18.8287L26.875 6.87529C27.9105 5.83975 27.9105 4.16082 26.875 3.12528C25.8395 2.08975 24.1605 2.08975 23.125 3.12528L11.1715 15.0787C10.7392 15.5111 10.523 15.7273 10.3684 15.9796C10.2313 16.2033 10.1303 16.4471 10.069 16.7022C9.99997 16.9899 9.99997 17.2957 9.99997 17.9071V20.0003Z" stroke="#4E321D" stroke-width="2.70239" stroke-linecap="round" stroke-linejoin="round"/>
</svg>
