<svg width="31" height="31" viewBox="0 0 31 31" fill="none" xmlns="http://www.w3.org/2000/svg">
<path d="M14.8022 2.86896C15.1415 2.13333 16.1871 2.13333 16.5264 2.86896L19.8612 10.0989C19.9995 10.3987 20.2836 10.6051 20.6115 10.644L28.5181 11.5814C29.3225 11.6768 29.6456 12.6712 29.0509 13.2212L23.2053 18.627C22.9629 18.8511 22.8544 19.1851 22.9187 19.509L24.4704 27.3183C24.6283 28.1128 23.7825 28.7274 23.0756 28.3317L16.128 24.4427C15.8399 24.2815 15.4887 24.2815 15.2006 24.4427L8.25303 28.3317C7.54613 28.7274 6.70029 28.1128 6.85818 27.3183L8.40987 19.509C8.47422 19.1851 8.36569 18.8511 8.12329 18.627L2.27776 13.2212C1.68299 12.6712 2.00607 11.6768 2.81054 11.5814L10.7171 10.644C11.045 10.6051 11.3291 10.3987 11.4674 10.0989L14.8022 2.86896Z" stroke="#4E321D" stroke-width="2.70239"/>
</svg>
