<svg width="167" height="47" viewBox="0 0 167 47" fill="none" xmlns="http://www.w3.org/2000/svg">
<circle cx="21.2688" cy="23.2688" r="20.1005" stroke="#4E321D" stroke-width="1.66347"/>
<path fill-rule="evenodd" clip-rule="evenodd" d="M21.2689 40.874C30.992 40.874 38.8742 32.9918 38.8742 23.2686C38.8742 13.5455 30.992 5.66333 21.2689 5.66333C14.2623 5.66333 8.21166 9.75638 5.37763 15.6819H26.8151C27.1504 15.6819 27.4222 15.9537 27.4222 16.289C27.4222 16.6242 27.1504 16.896 26.8151 16.896H4.85232C4.47566 17.8657 4.18243 18.877 3.98144 19.9211H24.9074C25.2427 19.9211 25.5145 20.1929 25.5145 20.5281C25.5145 20.8634 25.2427 21.1352 24.9074 21.1352H3.79153C3.70705 21.8346 3.66357 22.5465 3.66357 23.2686C3.66357 23.5678 3.67104 23.8652 3.68578 24.1607H21.9397C22.275 24.1607 22.5468 24.4325 22.5468 24.7678C22.5468 25.1031 22.275 25.3749 21.9397 25.3749H3.78827C3.91212 26.4138 4.12644 27.4248 4.42311 28.4H18.76C19.0953 28.4 19.3671 28.6718 19.3671 29.0071C19.3671 29.3424 19.0953 29.6142 18.76 29.6142H4.84184C5.25244 30.6764 5.7631 31.6888 6.36227 32.6399H13.6728C14.0081 32.6399 14.2799 32.9117 14.2799 33.247C14.2799 33.5823 14.0081 33.8541 13.6728 33.8541H7.20009C10.413 38.1176 15.5191 40.874 21.2689 40.874ZM30.1755 17.519C29.8502 17.4377 29.5206 17.6355 29.4393 17.9607C29.358 18.286 29.5557 18.6156 29.881 18.6969C30.3403 18.8118 31.0503 19.1884 31.5585 19.8365C32.0465 20.4587 32.3593 21.3414 32.0582 22.5458C31.8099 23.5389 31.146 24.0899 30.2992 24.4062C29.4283 24.7315 28.4075 24.7868 27.5853 24.7733C26.9956 24.7635 26.4529 25.0863 26.1769 25.6042C25.5014 26.8716 24.3463 28.6342 22.7931 30.0059C22.5418 30.2278 22.518 30.6115 22.7399 30.8628C22.9618 31.1141 23.3455 31.1379 23.5968 30.916C25.2967 29.4148 26.5333 27.517 27.2484 26.1753C27.3114 26.0569 27.4343 25.9851 27.5653 25.9873C28.4297 26.0015 29.6355 25.9502 30.7241 25.5436C31.837 25.1278 32.8658 24.3212 33.2361 22.8403C33.6335 21.2505 33.219 19.9862 32.5139 19.0872C31.8291 18.214 30.8804 17.6953 30.1755 17.519ZM21.8455 32.2834C21.8298 32.65 21.5198 32.9344 21.1533 32.9186C20.7867 32.9029 20.5023 32.5929 20.5181 32.2264C20.5338 31.8598 20.8437 31.5754 21.2103 31.5911C21.5769 31.6069 21.8613 31.9168 21.8455 32.2834Z" fill="#4E321D"/>
<path d="M76.3804 20.925C76.447 21.0417 76.4887 21.1833 76.5054 21.35C76.522 21.5167 76.5137 21.6833 76.4804 21.85C76.4637 22 76.4304 22.15 76.3804 22.3C76.347 22.4333 76.3054 22.5333 76.2554 22.6H59.8304C59.647 22.6 59.4137 22.625 59.1304 22.675C58.8637 22.7083 58.597 22.7583 58.3304 22.825C58.0637 22.875 57.822 22.925 57.6054 22.975C57.4054 23.0083 57.272 23.025 57.2054 23.025C57.072 23.025 56.8804 22.9917 56.6304 22.925C56.3804 22.8417 56.0887 22.7417 55.7554 22.625C55.4387 22.4917 55.1054 22.3417 54.7554 22.175C54.4054 21.9917 54.072 21.8083 53.7554 21.625C53.7554 21.5583 53.7637 21.4667 53.7804 21.35C53.8137 21.2333 53.847 21.1167 53.8804 21C53.9304 20.8833 53.9804 20.7833 54.0304 20.7C54.0804 20.6167 54.1387 20.575 54.2054 20.575C54.322 20.575 54.597 20.5917 55.0304 20.625C55.4804 20.6417 55.9804 20.6667 56.5304 20.7C57.097 20.7333 57.6804 20.7667 58.2804 20.8C58.8804 20.8167 59.397 20.825 59.8304 20.825H69.1304C69.197 20.3917 69.2637 19.9333 69.3304 19.45C69.4137 18.95 69.4887 18.45 69.5554 17.95C69.622 17.45 69.672 16.95 69.7054 16.45C69.7554 15.95 69.7804 15.4833 69.7804 15.05H62.6554C62.1054 15.05 61.622 15.1167 61.2054 15.25C60.8054 15.3833 60.472 15.45 60.2054 15.45C60.0387 15.45 59.7804 15.3917 59.4304 15.275C59.097 15.1417 58.7554 15 58.4054 14.85C58.0554 14.7 57.7387 14.5583 57.4554 14.425C57.1887 14.2917 57.0304 14.2083 56.9804 14.175C56.9804 14.125 56.9887 14.0333 57.0054 13.9C57.022 13.7667 57.047 13.6333 57.0804 13.5C57.1137 13.3667 57.1554 13.25 57.2054 13.15C57.2554 13.05 57.3137 13 57.3804 13C57.4637 13 57.7054 13.0167 58.1054 13.05C58.5054 13.0667 58.9637 13.0917 59.4804 13.125C60.0137 13.1417 60.5637 13.1583 61.1304 13.175C61.697 13.1917 62.2054 13.2 62.6554 13.2H68.7054C68.8887 13.2 69.0887 13.1833 69.3054 13.15C69.522 13.1167 69.7304 13.0833 69.9304 13.05C70.1304 13.0167 70.3054 12.9833 70.4554 12.95C70.622 12.9167 70.7387 12.9 70.8054 12.9C70.9387 12.9 71.0804 12.9083 71.2304 12.925C71.397 12.9417 71.5554 12.9667 71.7054 13C71.872 13.0167 72.022 13.0417 72.1554 13.075C72.2887 13.1083 72.3887 13.1333 72.4554 13.15C72.6887 13.2167 72.8387 13.3083 72.9054 13.425C72.9887 13.525 73.0304 13.6167 73.0304 13.7C73.0304 14.1 72.9804 14.6 72.8804 15.2C72.797 15.8 72.672 16.4333 72.5054 17.1C72.3554 17.75 72.172 18.4 71.9554 19.05C71.7387 19.7 71.5137 20.2833 71.2804 20.8C71.7637 20.75 72.1554 20.65 72.4554 20.5C72.772 20.35 73.047 20.275 73.2804 20.275C73.4637 20.275 73.722 20.3 74.0554 20.35C74.3887 20.3833 74.722 20.4333 75.0554 20.5C75.3887 20.5667 75.6804 20.6417 75.9304 20.725C76.197 20.7917 76.347 20.8583 76.3804 20.925ZM73.3054 33.6C73.372 33.6667 73.422 33.7833 73.4554 33.95C73.4887 34.1333 73.497 34.325 73.4804 34.525C73.4637 34.725 73.4137 34.9167 73.3304 35.1C73.2637 35.3 73.1554 35.4333 73.0054 35.5H60.8054C60.0054 35.5 59.397 35.2917 58.9804 34.875C58.5804 34.4583 58.3804 33.925 58.3804 33.275V31.05C58.3804 30.9667 58.3637 30.9 58.3304 30.85C58.3137 30.7833 58.2637 30.7083 58.1804 30.625L57.4054 29.975C57.4054 29.875 57.447 29.7333 57.5304 29.55C57.6304 29.35 57.722 29.25 57.8054 29.25C57.9054 29.25 58.072 29.2583 58.3054 29.275C58.5554 29.2917 58.8137 29.3083 59.0804 29.325C59.347 29.325 59.597 29.3333 59.8304 29.35C60.0804 29.3667 60.2637 29.375 60.3804 29.375H69.1054C69.122 29.2583 69.1304 29.1 69.1304 28.9C69.147 28.6833 69.1554 28.4667 69.1554 28.25C69.172 28.0167 69.1804 27.7917 69.1804 27.575C69.1804 27.3583 69.1804 27.175 69.1804 27.025H61.6804C61.297 27.025 60.9304 27.0667 60.5804 27.15C60.247 27.2333 60.0137 27.275 59.8804 27.275C59.7304 27.275 59.5137 27.225 59.2304 27.125C58.947 27.025 58.6637 26.9083 58.3804 26.775C58.097 26.6417 57.8387 26.5167 57.6054 26.4C57.3887 26.2667 57.2554 26.1833 57.2054 26.15C57.2054 26.1 57.2137 26.0167 57.2304 25.9C57.2637 25.7833 57.297 25.6667 57.3304 25.55C57.3637 25.4333 57.4054 25.3333 57.4554 25.25C57.522 25.15 57.5804 25.1 57.6304 25.1C57.697 25.1 57.897 25.1083 58.2304 25.125C58.5637 25.1417 58.9387 25.1583 59.3554 25.175C59.7887 25.175 60.2137 25.1833 60.6304 25.2C61.0637 25.2167 61.4137 25.225 61.6804 25.225H68.2054C68.3054 25.225 68.4387 25.2083 68.6054 25.175C68.7887 25.1417 68.972 25.1083 69.1554 25.075C69.3387 25.0417 69.5054 25.0083 69.6554 24.975C69.822 24.9417 69.9387 24.925 70.0054 24.925C70.072 24.925 70.172 24.9333 70.3054 24.95C70.4554 24.9667 70.6054 24.9917 70.7554 25.025C70.9054 25.0417 71.0554 25.0667 71.2054 25.1C71.3554 25.1167 71.472 25.1333 71.5554 25.15C71.772 25.2 71.947 25.2833 72.0804 25.4C72.2137 25.5 72.2804 25.6583 72.2804 25.875C72.2804 25.9583 72.2637 26.1167 72.2304 26.35C72.2137 26.5833 72.1887 26.8417 72.1554 27.125C72.122 27.4083 72.0804 27.7083 72.0304 28.025C71.9804 28.325 71.9304 28.5917 71.8804 28.825C71.8304 28.9417 71.7804 29.05 71.7304 29.15C71.697 29.25 71.647 29.3667 71.5804 29.5C71.7637 29.5333 71.9387 29.625 72.1054 29.775C72.272 29.925 72.3554 30.1167 72.3554 30.35C72.3554 30.5 72.2804 30.6667 72.1304 30.85C71.997 31.0333 71.7804 31.125 71.4804 31.125H61.3054V33C61.3054 33.2667 61.3804 33.4417 61.5304 33.525C61.697 33.6083 61.8637 33.65 62.0304 33.65H68.6804C68.797 33.65 68.972 33.625 69.2054 33.575C69.4554 33.525 69.7054 33.4667 69.9554 33.4C70.2054 33.3333 70.4304 33.275 70.6304 33.225C70.847 33.175 70.9887 33.15 71.0554 33.15C71.172 33.15 71.3387 33.1583 71.5554 33.175C71.7887 33.2083 72.022 33.2417 72.2554 33.275C72.4887 33.325 72.7054 33.375 72.9054 33.425C73.1054 33.475 73.2387 33.5333 73.3054 33.6ZM100.799 19.875C100.865 19.9083 100.915 20.0083 100.949 20.175C100.982 20.3417 100.999 20.5333 100.999 20.75C100.999 20.9667 100.974 21.1917 100.924 21.425C100.89 21.6417 100.84 21.8167 100.774 21.95H96.6485L96.6235 25C96.6235 25.5333 96.5819 26.0583 96.4985 26.575C96.4152 27.075 96.3152 27.5417 96.1985 27.975C96.0985 28.3917 95.9819 28.7583 95.8485 29.075C95.7319 29.375 95.6235 29.5917 95.5235 29.725H94.3985C94.3319 29.6083 94.2652 29.425 94.1985 29.175C94.1319 28.9083 94.0652 28.6 93.9985 28.25C93.9485 27.9 93.8985 27.5167 93.8485 27.1C93.8152 26.6667 93.7985 26.2333 93.7985 25.8V14.175C93.7985 14.0083 93.7569 13.875 93.6735 13.775C93.5902 13.6583 93.5069 13.5583 93.4235 13.475L91.9985 12.225C92.0819 12.025 92.1652 11.8167 92.2485 11.6C92.3485 11.3667 92.4569 11.25 92.5735 11.25C92.7735 11.25 93.0402 11.275 93.3735 11.325C93.7069 11.375 94.0569 11.4417 94.4235 11.525C94.8069 11.6083 95.1735 11.7 95.5235 11.8C95.8735 11.9 96.1652 12 96.3985 12.1C96.5485 12.1667 96.6402 12.2417 96.6735 12.325C96.7235 12.3917 96.7485 12.4917 96.7485 12.625C96.7485 12.7583 96.7319 12.975 96.6985 13.275C96.6819 13.575 96.6735 13.8583 96.6735 14.125L96.6485 20.2C97.0819 20.15 97.4819 20.025 97.8485 19.825C98.2319 19.625 98.5402 19.525 98.7735 19.525C98.8902 19.525 99.0485 19.5417 99.2485 19.575C99.4485 19.5917 99.6485 19.6167 99.8485 19.65C100.065 19.6833 100.257 19.725 100.424 19.775C100.59 19.8083 100.715 19.8417 100.799 19.875ZM88.3985 14.7C88.1152 14.7333 87.7652 14.7667 87.3485 14.8C86.9485 14.8167 86.5235 14.8417 86.0735 14.875C85.6402 14.8917 85.2152 14.9083 84.7985 14.925C84.3985 14.9417 84.0652 14.95 83.7985 14.95C83.5652 14.95 83.1985 14.8 82.6985 14.5C82.1985 14.2 81.6985 13.8333 81.1985 13.4C81.1985 13.3333 81.2069 13.25 81.2235 13.15C81.2569 13.0333 81.2902 12.925 81.3235 12.825C81.3569 12.725 81.3902 12.6417 81.4235 12.575C81.4735 12.4917 81.5152 12.45 81.5485 12.45C81.5819 12.45 81.7319 12.4667 81.9985 12.5C82.2652 12.5333 82.5569 12.575 82.8735 12.625C83.2069 12.675 83.5319 12.725 83.8485 12.775C84.1652 12.8083 84.3985 12.825 84.5485 12.825L88.3985 13.025C88.4985 13.025 88.5735 13.1083 88.6235 13.275C88.6735 13.425 88.6985 13.6 88.6985 13.8C88.6985 13.9833 88.6735 14.1667 88.6235 14.35C88.5735 14.5167 88.4985 14.6333 88.3985 14.7ZM82.1735 17.975C81.9069 17.975 81.5819 18.0333 81.1985 18.15C80.8152 18.25 80.5152 18.3 80.2985 18.3C80.1819 18.3 80.0069 18.25 79.7735 18.15C79.5569 18.05 79.3235 17.9417 79.0735 17.825C78.8402 17.6917 78.6152 17.5583 78.3985 17.425C78.1819 17.2917 78.0319 17.2 77.9485 17.15C77.9485 17.1 77.9569 17.0167 77.9735 16.9C78.0069 16.7667 78.0319 16.6417 78.0485 16.525C78.0819 16.3917 78.1152 16.275 78.1485 16.175C78.1819 16.075 78.2152 16.025 78.2485 16.025C78.3485 16.025 78.5402 16.0333 78.8235 16.05C79.1235 16.0667 79.4569 16.0917 79.8235 16.125C80.2069 16.1417 80.6069 16.1583 81.0235 16.175C81.4402 16.1917 81.8235 16.2 82.1735 16.2H87.7985C88.1652 16.2 88.5485 16.15 88.9485 16.05C89.3652 15.9333 89.6902 15.875 89.9235 15.875C90.1235 15.875 90.3319 15.8833 90.5485 15.9C90.7652 15.9167 90.9735 15.9417 91.1735 15.975C91.3735 15.9917 91.5402 16.0167 91.6735 16.05C91.8235 16.0833 91.9235 16.1083 91.9735 16.125C92.0402 16.1583 92.0985 16.2583 92.1485 16.425C92.1985 16.5917 92.2235 16.7833 92.2235 17C92.2235 17.2 92.1985 17.4 92.1485 17.6C92.1152 17.7833 92.0569 17.9083 91.9735 17.975H82.1735ZM90.6735 22.925C90.6735 23.475 90.5485 24 90.2985 24.5C90.0485 25 89.6902 25.4417 89.2235 25.825C88.7735 26.1917 88.2235 26.4833 87.5735 26.7C86.9235 26.9167 86.2069 27.025 85.4235 27.025C84.6402 27.025 83.9235 26.9167 83.2735 26.7C82.6402 26.4833 82.0902 26.1917 81.6235 25.825C81.1735 25.4417 80.8235 25 80.5735 24.5C80.3235 24 80.1985 23.475 80.1985 22.925C80.1985 22.375 80.3235 21.85 80.5735 21.35C80.8235 20.85 81.1735 20.4167 81.6235 20.05C82.0902 19.6667 82.6402 19.3667 83.2735 19.15C83.9235 18.9167 84.6402 18.8 85.4235 18.8C86.2069 18.8 86.9235 18.9167 87.5735 19.15C88.2235 19.3667 88.7735 19.6667 89.2235 20.05C89.6902 20.4167 90.0485 20.85 90.2985 21.35C90.5485 21.85 90.6735 22.375 90.6735 22.925ZM82.8235 22.925C82.8235 23.5417 83.0402 24.0667 83.4735 24.5C83.9235 24.9333 84.5735 25.15 85.4235 25.15C86.2735 25.15 86.9235 24.9333 87.3735 24.5C87.8235 24.0667 88.0485 23.5417 88.0485 22.925C88.0485 22.3083 87.8235 21.7833 87.3735 21.35C86.9235 20.9 86.2735 20.675 85.4235 20.675C84.5735 20.675 83.9235 20.9 83.4735 21.35C83.0402 21.7833 82.8235 22.3083 82.8235 22.925ZM95.2735 32.575C95.4569 32.575 95.6819 32.5917 95.9485 32.625C96.2319 32.6583 96.5069 32.7 96.7735 32.75C97.0402 32.8 97.2819 32.85 97.4985 32.9C97.7152 32.9667 97.8485 33.0333 97.8985 33.1C97.9485 33.1667 97.9902 33.2833 98.0235 33.45C98.0569 33.6333 98.0652 33.825 98.0485 34.025C98.0485 34.225 98.0235 34.4167 97.9735 34.6C97.9402 34.7833 97.8819 34.9167 97.7985 35H86.9235C86.0402 35 85.3319 34.8 84.7985 34.4C84.2819 34 84.0235 33.45 84.0235 32.75V30.425C84.0235 30.2917 84.0069 30.2083 83.9735 30.175C83.9569 30.125 83.9152 30.075 83.8485 30.025L82.9235 29.3C82.9235 29.2667 82.9402 29.2 82.9735 29.1C83.0069 29 83.0485 28.9 83.0985 28.8C83.1485 28.7 83.1985 28.6167 83.2485 28.55C83.3152 28.4667 83.3735 28.425 83.4235 28.425C83.6235 28.425 83.8569 28.4333 84.1235 28.45C84.4069 28.4667 84.6819 28.4917 84.9485 28.525C85.2319 28.5417 85.4902 28.5667 85.7235 28.6C85.9569 28.6167 86.1402 28.6333 86.2735 28.65C86.4735 28.6833 86.6485 28.7417 86.7985 28.825C86.9652 28.9083 87.0485 29.0833 87.0485 29.35L87.0235 30.075V32.4C87.0235 32.6667 87.0985 32.8583 87.2485 32.975C87.3985 33.1083 87.6652 33.175 88.0485 33.175H92.6485C92.8985 33.175 93.1485 33.1417 93.3985 33.075C93.6652 33.025 93.9152 32.9583 94.1485 32.875C94.3819 32.8083 94.5902 32.7417 94.7735 32.675C94.9735 32.6083 95.1402 32.575 95.2735 32.575ZM122.267 12.1C122.4 12.1667 122.492 12.2417 122.542 12.325C122.592 12.3917 122.617 12.4917 122.617 12.625C122.617 12.7583 122.6 12.975 122.567 13.275C122.55 13.575 122.542 13.8583 122.542 14.125L122.492 20.3C122.492 20.8333 122.45 21.3417 122.367 21.825C122.283 22.3083 122.183 22.75 122.067 23.15C121.95 23.55 121.833 23.9 121.717 24.2C121.6 24.4833 121.492 24.6917 121.392 24.825H120.267C120.133 24.5917 120 24.1333 119.867 23.45C119.733 22.7667 119.667 21.9833 119.667 21.1V20.075L117.242 20.15C117.192 20.15 117.083 20.1667 116.917 20.2C116.75 20.2167 116.567 20.25 116.367 20.3C116.167 20.3333 115.975 20.3667 115.792 20.4C115.625 20.4167 115.5 20.425 115.417 20.425C115.317 20.425 115.1 20.3333 114.767 20.15C114.45 19.9667 114.117 19.7667 113.767 19.55C113.233 20.4 112.617 21.2167 111.917 22C111.217 22.7833 110.458 23.5083 109.642 24.175C108.842 24.825 107.983 25.4 107.067 25.9C106.167 26.3833 105.233 26.7667 104.267 27.05C104.15 27.05 104 27.0083 103.817 26.925C103.65 26.8417 103.5 26.75 103.367 26.65C103.233 26.5333 103.142 26.4167 103.092 26.3C103.058 26.1833 103.108 26.0917 103.242 26.025C104.758 25.3417 106.1 24.5 107.267 23.5C108.433 22.5 109.417 21.4167 110.217 20.25L106.642 20.55C106.508 20.5667 106.333 20.6 106.117 20.65C105.9 20.7 105.725 20.725 105.592 20.725C105.475 20.725 105.317 20.6833 105.117 20.6C104.917 20.5167 104.717 20.4167 104.517 20.3C104.317 20.1833 104.125 20.075 103.942 19.975C103.775 19.8583 103.658 19.775 103.592 19.725C103.592 19.6917 103.592 19.6333 103.592 19.55C103.608 19.45 103.625 19.35 103.642 19.25C103.675 19.15 103.7 19.0667 103.717 19C103.75 18.9167 103.792 18.875 103.842 18.875C103.908 18.875 104.033 18.8833 104.217 18.9C104.417 18.9 104.633 18.9083 104.867 18.925C105.1 18.925 105.333 18.925 105.567 18.925C105.817 18.925 106.017 18.9167 106.167 18.9L111.267 18.5C111.483 18.1 111.667 17.7 111.817 17.3C111.983 16.8833 112.133 16.475 112.267 16.075H108.992C108.892 16.075 108.742 16.0917 108.542 16.125C108.342 16.1417 108.133 16.1667 107.917 16.2C107.717 16.2167 107.533 16.2417 107.367 16.275C107.217 16.2917 107.125 16.3 107.092 16.3C106.925 16.3 106.717 16.2583 106.467 16.175C106.217 16.075 105.958 15.9667 105.692 15.85C105.442 15.7333 105.208 15.6167 104.992 15.5C104.792 15.3833 104.642 15.3 104.542 15.25C104.542 15.0333 104.583 14.8 104.667 14.55C104.75 14.2833 104.833 14.15 104.917 14.15C104.95 14.15 105.125 14.1583 105.442 14.175C105.758 14.1917 106.108 14.2083 106.492 14.225C106.892 14.225 107.275 14.2333 107.642 14.25C108.025 14.2667 108.3 14.275 108.467 14.275H112.042C112.175 14.275 112.325 14.2667 112.492 14.25C112.658 14.2167 112.817 14.1833 112.967 14.15C113.117 14.1 113.25 14.0667 113.367 14.05C113.5 14.0167 113.6 14 113.667 14C113.733 14 113.825 14.0083 113.942 14.025C114.075 14.0417 114.208 14.0667 114.342 14.1C114.492 14.1167 114.625 14.1333 114.742 14.15C114.875 14.1667 114.967 14.1833 115.017 14.2C115.233 14.25 115.408 14.325 115.542 14.425C115.692 14.525 115.767 14.6583 115.767 14.825C115.767 14.9083 115.742 15.025 115.692 15.175C115.658 15.3083 115.617 15.4583 115.567 15.625C115.433 16.0583 115.275 16.5 115.092 16.95C114.925 17.3833 114.733 17.8167 114.517 18.25C114.867 18.2833 115.283 18.3167 115.767 18.35C116.267 18.3667 116.758 18.3667 117.242 18.35L119.667 18.275V14.175C119.667 14.0083 119.625 13.875 119.542 13.775C119.458 13.6583 119.375 13.5583 119.292 13.475L117.867 12.225C117.933 12.0417 118.017 11.8333 118.117 11.6C118.217 11.3667 118.325 11.25 118.442 11.25C118.642 11.25 118.908 11.275 119.242 11.325C119.575 11.375 119.925 11.4417 120.292 11.525C120.675 11.6083 121.042 11.7 121.392 11.8C121.742 11.9 122.033 12 122.267 12.1ZM121.717 25.925C121.883 25.9917 122.008 26.05 122.092 26.1C122.175 26.15 122.217 26.2333 122.217 26.35C122.217 26.4333 122.208 26.575 122.192 26.775C122.175 26.975 122.167 27.1417 122.167 27.275L122.092 32.775C122.092 33.0583 122.058 33.35 121.992 33.65C121.925 33.9667 121.842 34.2583 121.742 34.525C121.642 34.8083 121.525 35.0583 121.392 35.275C121.275 35.5083 121.142 35.6833 120.992 35.8H119.817C119.733 35.7167 119.658 35.6 119.592 35.45C119.525 35.3167 119.467 35.1917 119.417 35.075H112.567C112.517 35.2083 112.417 35.3417 112.267 35.475C112.133 35.625 112.008 35.7333 111.892 35.8H110.867C110.6 35.4667 110.4 35.0667 110.267 34.6C110.133 34.1333 110.05 33.6333 110.017 33.1L109.767 28.075C109.767 27.975 109.742 27.9 109.692 27.85C109.658 27.7833 109.608 27.7167 109.542 27.65C109.458 27.5667 109.342 27.475 109.192 27.375C109.058 27.275 108.933 27.1833 108.817 27.1C108.867 26.9667 108.933 26.8083 109.017 26.625C109.117 26.4417 109.208 26.35 109.292 26.35C109.442 26.35 109.642 26.3583 109.892 26.375C110.142 26.375 110.408 26.3833 110.692 26.4C110.992 26.4167 111.275 26.45 111.542 26.5C111.808 26.5333 112.033 26.575 112.217 26.625C112.4 26.6917 112.525 26.75 112.592 26.8C112.675 26.85 112.717 26.9333 112.717 27.05L112.692 27.975V28.8H119.242V27.4C119.242 27.3 119.233 27.225 119.217 27.175C119.2 27.125 119.15 27.0583 119.067 26.975C118.983 26.8917 118.858 26.7833 118.692 26.65C118.542 26.5 118.425 26.3833 118.342 26.3C118.358 26.2333 118.392 26.1583 118.442 26.075C118.492 25.975 118.542 25.8833 118.592 25.8C118.642 25.7 118.692 25.625 118.742 25.575C118.808 25.5083 118.858 25.475 118.892 25.475C119.308 25.475 119.792 25.5167 120.342 25.6C120.892 25.6833 121.35 25.7917 121.717 25.925ZM119.242 30.625H112.692V33.25H119.242V30.625Z" fill="#4E321D"/>
</svg>
