<svg width="24" height="25" viewBox="0 0 24 25" fill="none" xmlns="http://www.w3.org/2000/svg">
<path d="M7 3.63965V7.03965C7 7.5997 7 7.87973 7.10899 8.09364C7.20487 8.2818 7.35785 8.43478 7.54601 8.53065C7.75992 8.63965 8.03995 8.63965 8.6 8.63965H15.4C15.9601 8.63965 16.2401 8.63965 16.454 8.53065C16.6422 8.43478 16.7951 8.2818 16.891 8.09364C17 7.87973 17 7.5997 17 7.03965V4.63965M17 21.6396V15.2396C17 14.6796 17 14.3996 16.891 14.1857C16.7951 13.9975 16.6422 13.8445 16.454 13.7486C16.2401 13.6396 15.9601 13.6396 15.4 13.6396H8.6C8.03995 13.6396 7.75992 13.6396 7.54601 13.7486C7.35785 13.8445 7.20487 13.9975 7.10899 14.1857C7 14.3996 7 14.6796 7 15.2396V21.6396M21 9.96513V16.8396C21 18.5198 21 19.3599 20.673 20.0016C20.3854 20.5661 19.9265 21.025 19.362 21.3127C18.7202 21.6396 17.8802 21.6396 16.2 21.6396H7.8C6.11984 21.6396 5.27976 21.6396 4.63803 21.3127C4.07354 21.025 3.6146 20.5661 3.32698 20.0016C3 19.3599 3 18.5198 3 16.8396V8.43965C3 6.75949 3 5.91941 3.32698 5.27768C3.6146 4.71319 4.07354 4.25425 4.63803 3.96663C5.27976 3.63965 6.11984 3.63965 7.8 3.63965H14.6745C15.1637 3.63965 15.4083 3.63965 15.6385 3.69491C15.8425 3.7439 16.0376 3.82471 16.2166 3.93437C16.4184 4.05805 16.5914 4.231 16.9373 4.57691L20.0627 7.70239C20.4086 8.04829 20.5816 8.22125 20.7053 8.42308C20.8149 8.60202 20.8957 8.79711 20.9447 9.00118C21 9.23136 21 9.47595 21 9.96513Z" stroke="#4E321D" stroke-width="2" stroke-linecap="round" stroke-linejoin="round"/>
</svg>
