<svg width="24" height="25" viewBox="0 0 24 25" fill="none" xmlns="http://www.w3.org/2000/svg">
<path d="M7 3.63934V7.03934C7 7.5994 7 7.87942 7.10899 8.09333C7.20487 8.2815 7.35785 8.43448 7.54601 8.53035C7.75992 8.63934 8.03995 8.63934 8.6 8.63934H15.4C15.9601 8.63934 16.2401 8.63934 16.454 8.53035C16.6422 8.43448 16.7951 8.2815 16.891 8.09333C17 7.87942 17 7.5994 17 7.03934V4.63934M17 21.6393V15.2393C17 14.6793 17 14.3993 16.891 14.1854C16.7951 13.9972 16.6422 13.8442 16.454 13.7483C16.2401 13.6393 15.9601 13.6393 15.4 13.6393H8.6C8.03995 13.6393 7.75992 13.6393 7.54601 13.7483C7.35785 13.8442 7.20487 13.9972 7.10899 14.1854C7 14.3993 7 14.6793 7 15.2393V21.6393M21 9.96483V16.8393C21 18.5195 21 19.3596 20.673 20.0013C20.3854 20.5658 19.9265 21.0247 19.362 21.3124C18.7202 21.6393 17.8802 21.6393 16.2 21.6393H7.8C6.11984 21.6393 5.27976 21.6393 4.63803 21.3124C4.07354 21.0247 3.6146 20.5658 3.32698 20.0013C3 19.3596 3 18.5195 3 16.8393V8.43934C3 6.75919 3 5.91911 3.32698 5.27737C3.6146 4.71289 4.07354 4.25394 4.63803 3.96632C5.27976 3.63934 6.11984 3.63934 7.8 3.63934H14.6745C15.1637 3.63934 15.4083 3.63934 15.6385 3.6946C15.8425 3.7436 16.0376 3.82441 16.2166 3.93406C16.4184 4.05775 16.5914 4.2307 16.9373 4.5766L20.0627 7.70209C20.4086 8.04799 20.5816 8.22094 20.7053 8.42277C20.8149 8.60172 20.8957 8.79681 20.9447 9.00088C21 9.23105 21 9.47565 21 9.96483Z" stroke="#113057" stroke-width="2" stroke-linecap="round" stroke-linejoin="round"/>
</svg>
